<?xml version="1.0" standalone="no"?>
<!DOCTYPE svg PUBLIC "-//W3C//DTD SVG 20010904//EN"
 "http://www.w3.org/TR/2001/REC-SVG-20010904/DTD/svg10.dtd">
<svg version="1.0" xmlns="http://www.w3.org/2000/svg"
 width="120.000000pt" height="120.000000pt" viewBox="0 0 120.000000 120.000000"
 preserveAspectRatio="xMidYMid meet">
<metadata>
Created by potrace 1.11, written by Peter Selinger 2001-2013
</metadata>
<g transform="translate(0.000000,120.000000) scale(0.100000,-0.100000)"
fill="#000000" stroke="none">
<path d="M563 1062 c10 -10 14 -22 10 -27 -5 -4 0 -5 9 -2 14 5 16 3 9 -11 -5
-9 -12 -24 -14 -33 -4 -12 -17 -15 -59 -13 -32 1 -56 -3 -60 -9 -6 -9 -8 -8
-8 1 0 21 -27 44 -36 31 -3 -6 0 -15 7 -20 8 -5 10 -9 5 -9 -5 0 -2 -8 5 -17
8 -10 9 -14 2 -10 -6 4 -14 3 -18 -3 -3 -5 -1 -10 6 -10 19 0 -15 -43 -36 -46
-11 -2 -28 6 -38 17 -10 10 -23 19 -30 19 -8 0 -8 3 1 9 11 7 11 9 -1 14 -10
4 -14 -2 -13 -21 1 -22 -4 -27 -21 -27 -13 0 -22 -4 -20 -10 1 -5 8 -9 15 -9
6 1 12 -5 12 -13 0 -9 5 -11 13 -7 8 5 7 2 -2 -9 -12 -15 -12 -17 3 -11 11 4
16 2 14 -7 -4 -19 -22 -38 -31 -32 -4 2 -6 -1 -5 -9 2 -7 -8 -14 -21 -16 -13
-2 -21 0 -18 5 3 5 -6 8 -21 7 -38 -2 -39 -3 -20 -15 11 -6 15 -16 11 -27 -6
-15 -5 -16 12 -2 17 14 18 14 5 -10 -7 -14 -18 -28 -24 -32 -7 -5 -7 -8 2 -8
7 0 10 -4 7 -10 -3 -5 -2 -10 3 -10 6 0 12 -7 15 -14 4 -10 1 -13 -9 -9 -9 3
-14 0 -12 -7 4 -16 -30 -22 -53 -9 -19 10 -37 -5 -20 -16 10 -5 7 -36 -4 -55
-3 -6 -1 -10 4 -10 6 0 11 5 11 11 0 8 6 7 17 -2 11 -9 14 -10 9 -2 -5 9 0 12
18 11 13 -1 23 -5 20 -9 -2 -4 1 -9 7 -11 7 -2 9 -13 5 -26 -4 -12 -12 -19
-18 -16 -5 4 -3 -5 6 -18 9 -14 13 -28 9 -31 -3 -4 0 -7 8 -7 8 -1 2 -8 -13
-16 -30 -16 -37 -31 -13 -31 8 0 11 5 8 11 -4 6 1 5 10 -3 10 -8 17 -9 17 -3
0 6 9 10 20 9 11 -1 20 -8 20 -17 0 -13 1 -13 10 0 8 13 10 12 10 -3 0 -10 4
-16 9 -12 13 7 5 -33 -9 -49 -5 -7 -7 -16 -3 -20 4 -4 -1 -4 -11 0 -13 5 -17
4 -12 -4 5 -8 2 -10 -8 -6 -9 4 -16 1 -16 -6 0 -9 10 -11 30 -6 32 6 38 -2 18
-23 -11 -12 -10 -13 6 -7 16 5 17 4 6 -9 -11 -13 -10 -14 4 -9 9 3 16 12 16
20 0 8 5 14 11 14 5 0 7 6 3 13 -4 6 -4 9 1 5 4 -4 14 -3 22 3 10 9 13 8 13
-1 0 -7 8 -10 19 -7 14 3 18 1 14 -9 -3 -8 0 -14 6 -14 6 0 8 -7 4 -17 -5 -12
-3 -14 8 -8 10 7 9 1 -3 -18 -10 -14 -18 -29 -18 -32 0 -11 24 -4 35 12 10 13
17 14 43 5 20 -7 34 -7 37 -1 4 5 11 6 17 3 6 -4 14 0 19 7 7 11 9 10 9 -3 0
-10 4 -18 8 -18 6 0 7 -18 3 -63 -1 -5 -6 -5 -13 -1 -7 4 -8 3 -4 -5 6 -9 11
-9 22 0 11 9 21 9 39 1 15 -7 25 -8 25 -2 0 6 -5 10 -11 10 -5 0 -8 4 -5 9 4
5 -3 7 -14 4 -12 -3 -20 0 -20 6 0 7 4 10 9 7 4 -3 17 2 27 10 10 9 13 13 7 9
-18 -9 -16 10 2 25 11 9 22 9 44 2 23 -8 34 -7 52 6 15 10 20 11 14 2 -6 -10
-4 -12 8 -7 11 4 14 2 11 -7 -3 -7 2 -16 11 -20 9 -3 14 -2 12 2 -11 17 -16
82 -7 87 6 4 7 11 4 17 -5 7 -1 9 9 5 10 -3 17 -2 17 2 0 5 7 8 15 7 19 -3 55
-36 52 -48 -1 -6 5 -13 13 -15 12 -4 12 -3 1 5 -11 8 -11 10 0 14 11 4 10 10
-3 30 l-17 26 30 -15 c24 -12 33 -13 42 -4 9 9 7 10 -7 5 -15 -6 -17 -4 -11 6
5 9 4 11 -3 6 -7 -4 -12 -1 -12 8 0 8 -8 19 -17 25 -14 7 -15 13 -6 22 6 6 9
19 5 28 -5 14 -4 14 13 1 10 -8 16 -10 13 -5 -4 6 2 16 12 23 14 9 21 9 26 0
5 -7 3 -8 -6 -3 -9 5 -11 4 -6 -4 6 -9 11 -9 21 -1 9 8 15 8 20 0 3 -6 11 -8
16 -4 5 3 7 10 3 15 -3 5 -10 7 -15 4 -5 -4 -9 -1 -9 5 0 6 -5 8 -12 4 -9 -5
-9 -2 1 9 10 12 10 17 2 17 -8 0 -7 6 3 16 11 10 13 21 7 32 -4 9 -6 23 -3 31
3 10 0 11 -9 5 -12 -7 -12 -5 0 9 16 20 61 23 79 5 9 -9 12 -9 12 0 0 7 -5 12
-11 12 -5 0 -7 5 -4 10 3 6 -4 10 -17 10 -18 0 -20 2 -8 9 8 6 17 8 21 5 9 -5
23 15 16 22 -3 3 -15 1 -26 -6 -13 -7 -21 -7 -21 -1 0 6 -6 8 -13 5 -18 -6
-42 22 -27 31 5 3 10 20 10 36 0 22 -4 28 -12 23 -8 -5 -7 0 2 11 12 15 12 17
1 10 -11 -6 -12 -5 -5 6 5 8 9 17 9 21 0 3 4 10 9 15 5 5 6 3 2 -4 -4 -7 -2
-13 3 -13 6 0 11 7 11 16 0 11 -5 14 -17 9 -38 -15 -57 -14 -70 3 -8 9 -12 11
-8 5 11 -22 -4 -14 -16 8 -9 17 -8 20 3 13 11 -6 11 -5 -1 9 -12 15 -11 17 5
18 11 0 14 3 7 6 -7 2 -13 9 -13 14 0 6 5 7 10 4 6 -3 10 -2 10 4 0 6 7 8 15
5 8 -4 15 -1 15 6 0 6 -4 8 -10 5 -5 -3 -10 2 -10 12 0 10 -4 14 -8 8 -4 -5
-15 -16 -25 -24 -17 -14 -17 -13 0 17 14 24 15 34 6 43 -9 9 -11 7 -7 -8 3
-12 1 -24 -5 -27 -7 -5 -8 -1 -4 10 4 12 3 15 -5 10 -7 -4 -12 -14 -12 -22 0
-8 -6 -14 -12 -15 -7 0 -23 -2 -35 -3 -13 -2 -21 -1 -18 2 2 3 -4 17 -15 33
-15 20 -17 29 -8 32 10 4 10 7 0 18 -11 12 -14 12 -22 -1 -8 -12 -10 -11 -11
5 0 11 -3 15 -5 9 -2 -6 -18 -9 -34 -6 -17 2 -27 9 -23 15 3 6 1 7 -6 3 -6 -4
-9 -11 -6 -16 3 -4 -4 -10 -14 -13 -15 -3 -18 -1 -14 11 5 11 3 13 -7 7 -10
-6 -12 0 -7 28 3 20 1 39 -4 42 -5 4 -9 1 -9 -4 0 -17 -14 -13 -40 9 -29 25
-39 26 -17 2z m-38 -123 c4 -5 10 -7 14 -5 9 6 8 -36 -2 -51 -4 -6 -2 -14 3
-16 6 -3 5 -4 -2 -3 -8 2 -12 15 -11 33 1 17 -4 30 -10 30 -7 0 -19 2 -27 4
-9 2 -15 -3 -15 -13 0 -9 -4 -20 -9 -25 -5 -4 -6 -3 -2 5 4 7 2 12 -5 12 -8 0
-7 6 4 18 18 20 53 26 62 11z m210 -4 c6 -5 14 -19 18 -30 6 -18 6 -19 -6 -3
-10 12 -25 17 -50 15 -21 -2 -37 0 -37 5 0 4 9 8 20 8 11 0 20 5 20 10 0 12
20 9 35 -5z m-36 -79 c0 -6 -3 -6 -6 2 -2 6 -10 9 -16 5 -7 -3 -9 -3 -5 2 4 4
2 15 -4 24 -8 10 -4 9 10 -3 12 -11 22 -24 21 -30z m-266 -33 c-5 -12 -3 -14
8 -8 8 4 1 -6 -16 -23 -30 -31 -53 -43 -39 -20 5 8 2 9 -11 4 -18 -7 -18 -6 0
14 10 11 25 18 32 15 9 -3 11 0 7 6 -4 6 0 15 7 20 19 12 19 11 12 -8z m389
-23 c18 -16 27 -30 20 -30 -7 0 -10 -5 -6 -12 4 -7 3 -8 -5 -4 -6 4 -9 12 -6
17 3 5 -1 6 -10 3 -11 -5 -18 0 -22 15 -3 11 -10 21 -15 21 -5 0 -6 -5 -2 -12
4 -7 3 -8 -4 -4 -12 7 -5 36 9 36 5 0 23 -13 41 -30z m-479 -78 c3 7 5 3 3 -9
-1 -12 -6 -26 -11 -30 -4 -5 -5 -3 -2 3 4 6 -2 19 -13 29 -11 10 -20 23 -20
28 0 6 9 0 19 -12 14 -16 21 -18 24 -9z m602 16 c3 4 6 3 5 -3 -1 -5 -1 -12 0
-15 1 -3 3 -14 5 -25 l4 -20 -14 20 c-27 38 -36 45 -47 39 -7 -4 -8 -2 -4 4 5
8 13 9 25 2 10 -5 22 -6 26 -2z m-655 -5 c0 -5 -4 -15 -9 -22 -6 -9 -6 -22 0
-32 7 -13 5 -17 -8 -15 -12 2 -19 13 -20 32 -2 21 0 25 7 14 9 -13 10 -13 11
0 1 8 1 18 0 23 0 4 4 7 9 7 6 0 10 -3 10 -7z m321 -23 c6 0 7 6 3 13 -6 9 -4
9 8 -1 9 -7 20 -12 24 -11 14 3 55 -16 57 -26 1 -6 6 -9 11 -7 5 2 3 -4 -4
-13 -11 -13 -11 -15 -1 -13 24 6 29 -66 9 -117 -10 -26 -31 -48 -48 -50 -3 0
-14 -5 -25 -11 -26 -14 -75 -11 -85 5 -4 7 -11 12 -16 12 -19 -2 -44 11 -39
19 3 5 0 10 -6 12 -5 2 -11 18 -11 35 -1 18 -4 31 -7 28 -4 -2 -7 5 -7 16 0
10 7 19 16 20 10 0 11 2 3 6 -7 2 -13 9 -13 14 0 6 5 7 12 3 7 -4 8 -3 4 5 -5
7 3 22 19 37 25 23 37 28 63 25 6 -1 12 4 13 11 0 10 2 10 6 1 2 -7 9 -13 14
-13z m-441 -118 c0 -14 -15 -8 -15 6 0 4 -4 14 -10 22 -8 13 -7 13 8 1 9 -7
17 -20 17 -29z m737 -57 c0 -8 -4 -12 -8 -10 -3 3 -12 -2 -19 -9 -9 -12 -8
-20 5 -40 16 -24 16 -24 -7 -18 -12 3 -17 7 -10 10 10 3 10 7 1 18 -10 12 -7
20 11 39 28 29 27 29 27 10z m-597 -6 c0 -5 5 -7 12 -3 7 5 8 3 3 -5 -5 -9
-10 -10 -18 -2 -7 7 -14 7 -24 -1 -11 -9 -11 -14 -1 -26 10 -13 10 -14 1 -8
-9 5 -13 0 -14 -16 0 -22 -1 -22 -8 -3 -5 11 -4 22 1 23 5 2 3 11 -4 20 -7 10
-9 14 -4 10 5 -4 15 -1 23 7 17 18 33 19 33 4z m646 -33 c0 -14 -3 -23 -7 -20
-4 2 -10 0 -14 -6 -3 -5 0 -10 7 -10 9 0 9 -3 -2 -10 -8 -5 -19 -10 -25 -10
-5 0 -3 5 5 10 13 8 13 10 1 10 -11 0 -9 4 5 14 10 8 20 19 20 25 4 30 10 28
10 -3z m-559 -63 c-4 -3 7 -16 23 -28 l30 -22 -22 -19 c-12 -10 -18 -13 -14
-6 4 7 1 15 -8 18 -8 3 -22 17 -31 31 -10 14 -12 23 -7 19 6 -3 13 -2 17 4 3
5 9 10 12 10 4 0 3 -3 0 -7z m440 -21 c-10 -10 -15 -21 -13 -23 2 -2 -8 -13
-22 -23 -14 -11 -22 -13 -17 -6 6 10 4 12 -8 7 -11 -4 -14 -2 -10 9 3 9 13 13
27 9 16 -5 17 -4 7 4 -12 8 -12 12 -2 25 8 9 23 16 34 16 19 0 19 -1 4 -18z
m-286 -109 c10 -13 6 -12 -17 5 -28 19 -33 20 -44 7 -7 -8 -18 -15 -24 -15 -6
0 -4 5 4 10 8 5 11 10 5 11 -5 0 -1 4 10 8 22 9 45 1 66 -26z m118 5 c-6 -8
23 -48 31 -43 5 3 11 1 15 -5 10 -16 25 -2 19 18 -5 15 -4 14 6 -1 15 -23 9
-29 -29 -32 -18 -1 -29 2 -28 9 1 6 -3 10 -8 9 -6 -1 -10 12 -10 27 -1 16 1
27 3 25 2 -2 3 -5 1 -7z m-194 -28 c3 -5 1 -10 -4 -10 -6 0 -11 5 -11 10 0 6
2 10 4 10 3 0 8 -4 11 -10z m65 3 c-1 -29 -43 -52 -57 -31 -3 7 -1 8 5 4 7 -4
12 -2 12 3 0 6 7 11 16 11 8 0 12 5 9 10 -3 6 -1 10 4 10 6 0 11 -3 11 -7z"/>
<path d="M586 688 c4 -6 -2 -8 -17 -4 -13 3 -18 3 -11 0 17 -8 15 -24 -4 -24
-8 0 -12 -4 -9 -10 3 -5 2 -10 -2 -10 -5 0 -14 5 -21 10 -9 7 -9 7 -2 -2 14
-17 12 -31 -2 -22 -7 4 -10 4 -6 -1 4 -4 3 -16 -3 -26 -7 -15 -7 -19 3 -17 7
2 12 -3 10 -9 -1 -7 3 -13 9 -13 5 0 8 -4 5 -9 -3 -5 1 -12 10 -15 9 -3 12
-11 8 -18 -5 -8 -2 -9 10 -5 9 4 15 3 13 -1 -2 -4 4 -15 15 -24 10 -10 18 -13
18 -7 0 12 60 72 60 61 1 -12 21 28 25 48 2 11 0 20 -5 20 -4 0 -7 11 -6 25 2
13 -1 22 -6 19 -12 -7 -39 16 -32 27 3 5 2 10 -3 10 -50 7 -63 7 -57 -3z"/>
<path d="M710 599 c0 -5 5 -7 10 -4 6 3 10 8 10 11 0 2 -4 4 -10 4 -5 0 -10
-5 -10 -11z"/>
<path d="M630 490 c-9 -16 -8 -18 5 -14 8 3 13 10 10 14 -3 5 1 11 7 13 10 4
10 6 1 6 -7 1 -17 -8 -23 -19z"/>
<path d="M400 401 c0 -5 7 -12 16 -15 14 -5 15 -4 4 9 -14 17 -20 19 -20 6z"/>
<path d="M782 1001 c-11 -7 -11 -9 0 -14 9 -3 15 1 15 9 0 8 -1 14 -1 14 -1 0
-7 -4 -14 -9z"/>
<path d="M390 899 c0 -5 5 -7 10 -4 6 3 10 8 10 11 0 2 -4 4 -10 4 -5 0 -10
-5 -10 -11z"/>
</g>
</svg>
